# xmcd
#
# Track frame offsets:
#	150
#	14779
#	38034
#	78163
#	170417
#	196746
#	209276
#	259568
#
# Disc length: 4545 seconds
#
# Revision: 1
# Processed by: cddbd v1.5.2PL0 Copyright (c) Steve Scherf et al.
# Submitted via: audiograbber 1.83.01
#
DISCID=5f11bf08
DTITLE=Grateful Dead - 69-03-15 Hilton Hotel, San Francisco CA
DYEAR=1900
DGENRE=
TTITLE0=Stage Banter
TTITLE1=Hard To Handle
TTITLE2=Good Morning Little Schoolgirl
TTITLE3=Dark Star
TTITLE4=St Stephen
TTITLE5=William Tell Bridge
TTITLE6=The Eleven
TTITLE7=Turn On Your Lovelight
EXTD=
EXTT0=
EXTT1=
EXTT2=
EXTT3=
EXTT4=
EXTT5=
EXTT6=
EXTT7=
PLAYORDER=
